<?xml version="1.0" standalone="no"?>
<!DOCTYPE svg PUBLIC "-//W3C//DTD SVG 20010904//EN"
 "http://www.w3.org/TR/2001/REC-SVG-20010904/DTD/svg10.dtd">
<svg version="1.0" xmlns="http://www.w3.org/2000/svg"
 width="942.000000pt" height="545.000000pt" viewBox="0 0 942.000000 545.000000"
 preserveAspectRatio="xMidYMid meet">

<g transform="translate(0.000000,545.000000) scale(0.100000,-0.100000)"
fill="#000000" stroke="none">
<path d="M4321 5440 c-1427 -74 -2690 -500 -3496 -1178 -419 -354 -691 -773
-787 -1216 -30 -138 -33 -472 -5 -616 119 -615 595 -1189 1347 -1625 705 -409
1585 -670 2605 -771 215 -21 980 -31 1228 -15 1493 95 2821 598 3570 1353 290
293 488 624 573 956 38 153 47 248 41 457 -4 155 -10 209 -30 295 -45 187
-117 365 -214 528 -558 935 -1938 1621 -3613 1796 -356 38 -888 53 -1219 36z
m989 -110 c713 -59 1345 -196 1925 -415 807 -305 1416 -742 1772 -1271 87
-128 177 -318 223 -469 94 -305 88 -644 -15 -949 -169 -497 -604 -968 -1237
-1340 -142 -83 -480 -246 -658 -317 -1699 -676 -3988 -614 -5568 152 -232 112
-329 167 -522 295 -208 137 -348 251 -510 414 -208 207 -333 378 -439 602
-102 213 -145 368 -161 577 -51 684 353 1337 1145 1852 760 494 1851 815 2985
879 194 11 893 4 1060 -10z"/>
<path d="M4340 5249 c-1438 -68 -2678 -485 -3461 -1165 -376 -326 -613 -714
-684 -1118 -20 -117 -20 -365 0 -482 62 -355 244 -682 549 -989 718 -720 1949
-1181 3436 -1286 222 -16 771 -16 1000 0 772 52 1493 207 2102 452 193 77 538
246 685 336 586 356 978 789 1133 1251 51 152 71 263 77 432 6 185 -14 328
-72 505 -340 1044 -1827 1864 -3686 2035 -405 37 -725 45 -1079 29z m950 -64
c450 -37 814 -96 1212 -196 1203 -301 2111 -889 2468 -1599 254 -504 214
-1036 -116 -1530 -503 -756 -1663 -1339 -3059 -1539 -1430 -205 -2921 -9
-4033 529 -406 197 -700 399 -968 665 -316 313 -484 611 -555 980 -18 92 -18
368 0 460 80 416 310 783 702 1119 747 640 1957 1049 3334 1126 220 12 791 4
1015 -15z"/>
<path d="M2665 4774 c-307 -35 -537 -99 -825 -229 -490 -221 -893 -554 -1166
-967 -183 -275 -279 -541 -291 -803 -18 -425 229 -703 685 -770 59 -9 141 -15
182 -13 l73 3 -71 53 c-404 300 -353 911 125 1507 184 230 455 451 709 578
259 130 561 201 854 201 226 0 336 -38 450 -153 114 -117 160 -242 160 -441 0
-135 -10 -202 -49 -336 -108 -372 -372 -796 -714 -1151 -109 -112 -293 -276
-372 -330 -30 -21 -30 -21 -80 -2 -82 32 -263 78 -370 94 -373 56 -680 -53
-786 -278 -50 -108 -56 -209 -18 -317 18 -53 76 -136 123 -176 62 -53 189
-111 285 -130 120 -23 355 -14 507 19 193 43 477 174 664 306 l95 67 55 -13
c150 -34 520 -108 787 -157 1385 -254 2479 -315 3318 -185 614 95 1069 275
1431 567 388 312 604 699 604 1082 0 419 -236 802 -645 1049 -241 145 -589
258 -911 296 -171 20 -477 20 -636 -1 -241 -31 -484 -110 -645 -210 -116 -71
-241 -200 -289 -298 -36 -73 -39 -87 -39 -160 0 -104 25 -157 114 -247 87 -87
263 -182 393 -213 l28 -6 -35 57 c-69 115 -69 218 0 321 181 268 845 346 1425
166 318 -99 609 -307 718 -513 55 -103 74 -176 79 -309 10 -223 -47 -369 -225
-579 -147 -174 -488 -393 -772 -496 -156 -57 -150 -57 -104 -1 60 73 92 123
199 308 109 190 203 365 295 544 86 168 91 226 27 298 -31 36 -116 84 -148 84
-17 0 -132 -168 -233 -340 -119 -204 -415 -507 -511 -522 -17 -3 -20 2 -18 34
3 48 23 86 129 250 178 271 202 384 107 489 -20 23 -62 53 -93 69 l-57 29
-213 -337 c-117 -185 -219 -347 -226 -358 -22 -36 -169 -141 -230 -164 -142
-53 -139 12 11 245 53 81 106 166 119 189 80 144 74 276 -16 351 -42 36 -112
69 -129 63 -8 -3 -54 -70 -103 -149 -208 -335 -467 -630 -613 -699 -53 -25
-53 -25 -53 5 0 44 32 107 127 255 106 162 146 242 161 315 23 107 -24 194
-136 253 l-60 32 -224 -352 c-216 -341 -226 -355 -293 -405 -38 -29 -98 -66
-133 -84 -63 -31 -148 -51 -141 -33 2 5 30 55 62 111 83 145 128 275 134 388
3 53 1 107 -6 132 -39 145 -213 224 -390 179 -35 -9 -65 -15 -66 -14 -2 2 54
91 122 198 145 226 181 296 195 382 14 80 -1 135 -48 187 -34 39 -126 86 -148
78 -7 -3 -50 -65 -96 -138 -46 -74 -250 -393 -453 -709 -203 -316 -387 -609
-407 -650 -114 -226 -86 -414 70 -465 50 -16 139 -25 187 -18 30 5 31 6 21 41
-6 21 -8 69 -6 107 4 58 13 88 50 165 54 113 183 309 264 402 102 116 231 219
307 245 35 12 42 12 58 -3 42 -38 9 -188 -78 -356 -96 -185 -186 -276 -280
-285 -38 -4 -53 -1 -67 13 -18 17 -17 30 0 94 7 22 4 21 -40 -15 -88 -72 -131
-155 -124 -238 9 -110 84 -162 233 -162 101 0 163 17 240 66 48 31 49 31 84
14 109 -52 263 -18 409 89 l58 43 17 -48 c38 -107 156 -179 267 -164 95 13
226 90 336 197 l51 50 12 -48 c53 -210 295 -270 518 -129 32 21 82 58 111 82
29 25 54 44 56 42 1 -2 9 -20 16 -39 8 -19 30 -52 49 -73 84 -94 191 -108 327
-43 43 20 94 49 112 63 18 14 35 23 38 20 3 -2 -13 -26 -34 -54 -110 -138
-265 -221 -556 -299 -164 -44 -268 -53 -671 -60 -838 -15 -1813 75 -2599 241
-239 50 -321 68 -325 71 -2 2 45 54 104 116 328 343 590 744 744 1140 203 524
199 1075 -9 1391 -184 280 -527 420 -1018 416 -92 -1 -180 -4 -197 -5z m-773
-3003 c75 -13 198 -50 198 -60 0 -11 -118 -63 -205 -91 -81 -25 -218 -37 -257
-21 -15 5 -34 24 -43 42 -51 98 103 163 307 130z"/>
<path d="M2485 1248 c-27 -15 -35 -28 -35 -60 0 -29 55 -80 100 -92 24 -7 24
-6 6 8 -19 15 -19 16 7 37 42 33 34 109 -12 109 -12 0 -12 -3 -3 -12 7 -7 12
-28 12 -48 0 -55 -32 -77 -64 -44 -20 20 -20 63 0 92 17 25 17 26 -11 10z"/>
<path d="M3575 1248 c-11 -6 -23 -16 -27 -22 -14 -20 -8 -63 10 -79 25 -23 35
-21 22 2 -15 29 -12 72 7 93 19 21 16 22 -12 6z"/>
<path d="M2655 1190 c0 -47 3 -60 15 -60 12 0 15 13 15 60 0 47 -3 60 -15 60
-12 0 -15 -13 -15 -60z"/>
<path d="M2718 1243 c17 -7 15 -30 -4 -41 -15 -8 -15 -10 0 -15 18 -7 22 -47
4 -47 -6 0 -9 -3 -5 -6 3 -3 15 -3 26 1 25 8 28 43 5 52 -15 6 -15 7 1 19 23
17 12 44 -17 43 -13 0 -17 -3 -10 -6z"/>
<path d="M2820 1209 c0 -51 15 -79 42 -79 21 0 21 1 4 13 -14 10 -17 24 -15
60 4 40 1 47 -13 47 -14 0 -18 -9 -18 -41z"/>
<path d="M3019 1214 c12 -19 21 -46 21 -60 0 -15 6 -24 15 -24 22 0 19 46 -6
86 -11 19 -27 34 -36 34 -12 0 -11 -6 6 -36z"/>
<path d="M3092 1225 c-6 -14 -10 -25 -8 -25 2 0 11 11 20 25 9 14 13 25 8 25
-5 0 -14 -11 -20 -25z"/>
<path d="M3234 1235 c-8 -19 10 -41 45 -58 15 -8 25 -20 24 -31 -1 -17 0 -17
14 -3 22 21 10 44 -32 64 -21 10 -34 22 -31 30 3 7 1 13 -5 13 -5 0 -12 -7
-15 -15z"/>
<path d="M3305 1240 c3 -5 8 -10 11 -10 2 0 4 5 4 10 0 6 -5 10 -11 10 -5 0
-7 -4 -4 -10z"/>
<path d="M3370 1239 c0 -5 5 -7 10 -4 6 3 10 8 10 11 0 2 -4 4 -10 4 -5 0 -10
-5 -10 -11z"/>
<path d="M3420 1190 c0 -47 3 -60 15 -60 12 0 15 13 15 60 0 47 -3 60 -15 60
-12 0 -15 -13 -15 -60z"/>
<path d="M3485 1240 c3 -5 8 -10 11 -10 2 0 4 5 4 10 0 6 -5 10 -11 10 -5 0
-7 -4 -4 -10z"/>
<path d="M3638 1238 c16 -16 16 -80 0 -96 -7 -7 -8 -12 -2 -12 20 0 44 36 44
66 0 33 -15 54 -39 54 -12 0 -12 -3 -3 -12z"/>
<path d="M3745 1190 c0 -47 3 -60 15 -60 12 0 15 13 15 60 0 47 -3 60 -15 60
-12 0 -15 -13 -15 -60z"/>
<path d="M3817 1229 c4 -14 0 -26 -10 -34 -16 -11 -15 -14 4 -39 11 -14 29
-26 40 -26 18 0 18 2 -6 28 -23 24 -24 28 -9 39 19 14 15 47 -8 51 -13 2 -15
-2 -11 -19z"/>
<path d="M3925 1190 c0 -50 3 -60 18 -60 14 0 17 10 17 60 0 50 -3 60 -17 60
-15 0 -18 -10 -18 -60z"/>
<path d="M4005 1240 c3 -5 8 -10 11 -10 2 0 4 5 4 10 0 6 -5 10 -11 10 -5 0
-7 -4 -4 -10z"/>
<path d="M2922 1195 c-1 -23 -5 -45 -9 -51 -5 -5 -2 -4 5 2 8 7 12 26 9 50
l-4 39 -1 -40z"/>
<path d="M3975 1201 c-3 -5 -1 -12 5 -16 5 -3 10 1 10 9 0 18 -6 21 -15 7z"/>
<path d="M3156 1153 c-11 -11 -6 -23 9 -23 8 0 15 4 15 9 0 13 -16 22 -24 14z"/>
<path d="M3230 1145 c0 -8 7 -15 16 -15 14 0 14 3 4 15 -7 8 -14 15 -16 15 -2
0 -4 -7 -4 -15z"/>
<path d="M4010 1140 c-13 -8 -12 -10 3 -10 9 0 17 5 17 10 0 12 -1 12 -20 0z"/>
</g>
</svg>
